{
  "asset": {
    "version": "2.0",
    "generator": "goldfish-generator"
  },
  "scenes": [
    {
      "nodes": [
        0
      ]
    }
  ],
  "scene": 0,
  "nodes": [
    {
      "name": "Goldfish",
      "children": [
        1,
        2,
        3,
        4,
        5,
        6
      ]
    },
    {
      "name": "Body",
      "mesh": 0
    },
    {
      "name": "Tail",
      "mesh": 1,
      "translation": [
        -0.55,
        0.0,
        0.0
      ]
    },
    {
      "name": "Dorsal",
      "mesh": 2
    },
    {
      "name": "PectoralL",
      "mesh": 3,
      "translation": [
        0.0,
        0.0,
        0.0
      ]
    },
    {
      "name": "PectoralR",
      "mesh": 4,
      "translation": [
        0.0,
        0.0,
        0.0
      ]
    },
    {
      "name": "Pelvic",
      "mesh": 5
    }
  ],
  "meshes": [
    {
      "name": "Body",
      "primitives": [
        {
          "attributes": {
            "POSITION": 0,
            "NORMAL": 1,
            "TEXCOORD_0": 2
          },
          "indices": 3,
          "material": 0
        }
      ]
    },
    {
      "name": "Tail",
      "primitives": [
        {
          "attributes": {
            "POSITION": 4,
            "NORMAL": 5,
            "TEXCOORD_0": 6
          },
          "indices": 7,
          "material": 1
        }
      ]
    },
    {
      "name": "Dorsal",
      "primitives": [
        {
          "attributes": {
            "POSITION": 8,
            "NORMAL": 9,
            "TEXCOORD_0": 10
          },
          "indices": 11,
          "material": 1
        }
      ]
    },
    {
      "name": "PectoralL",
      "primitives": [
        {
          "attributes": {
            "POSITION": 12,
            "NORMAL": 13,
            "TEXCOORD_0": 14
          },
          "indices": 15,
          "material": 1
        }
      ]
    },
    {
      "name": "PectoralR",
      "primitives": [
        {
          "attributes": {
            "POSITION": 16,
            "NORMAL": 17,
            "TEXCOORD_0": 18
          },
          "indices": 19,
          "material": 1
        }
      ]
    },
    {
      "name": "Pelvic",
      "primitives": [
        {
          "attributes": {
            "POSITION": 20,
            "NORMAL": 21,
            "TEXCOORD_0": 22
          },
          "indices": 23,
          "material": 1
        }
      ]
    }
  ],
  "materials": [
    {
      "name": "BodyMaterial",
      "pbrMetallicRoughness": {
        "baseColorFactor": [
          1.0,
          0.52,
          0.3,
          1.0
        ],
        "metallicFactor": 0.05,
        "roughnessFactor": 0.35
      },
      "emissiveFactor": [
        0.08,
        0.02,
        0.0
      ]
    },
    {
      "name": "FinMaterial",
      "pbrMetallicRoughness": {
        "baseColorFactor": [
          1.0,
          0.74,
          0.55,
          0.7
        ],
        "metallicFactor": 0.0,
        "roughnessFactor": 0.6
      },
      "alphaMode": "BLEND",
      "doubleSided": true,
      "emissiveFactor": [
        0.05,
        0.02,
        0.01
      ]
    }
  ],
  "buffers": [
    {
      "byteLength": 78512,
      "uri": "data:application/octet-stream;base64,"
    }
  ],
  "bufferViews": [
    {
      "buffer": 0,
      "byteOffset": 0,
      "byteLength": 16236,
      "target": 34962
    },
    {
      "buffer": 0,
      "byteOffset": 16236,
      "byteLength": 16236,
      "target": 34962
    },
    {
      "buffer": 0,
      "byteOffset": 32472,
      "byteLength": 10824,
      "target": 34962
    },
    {
      "buffer": 0,
      "byteOffset": 43296,
      "byteLength": 15360,
      "target": 34963
    },
    {
      "buffer": 0,
      "byteOffset": 58656,
      "byteLength": 3276,
      "target": 34962
    },
    {
      "buffer": 0,
      "byteOffset": 61932,
      "byteLength": 3276,
      "target": 34962
    },
    {
      "buffer": 0,
      "byteOffset": 65208,
      "byteLength": 2184,
      "target": 34962
    },
    {
      "buffer": 0,
      "byteOffset": 67392,
      "byteLength": 2880,
      "target": 34963
    },
    {
      "buffer": 0,
      "byteOffset": 70272,
      "byteLength": 924,
      "target": 34962
    },
    {
      "buffer": 0,
      "byteOffset": 71196,
      "byteLength": 924,
      "target": 34962
    },
    {
      "buffer": 0,
      "byteOffset": 72120,
      "byteLength": 616,
      "target": 34962
    },
    {
      "buffer": 0,
      "byteOffset": 72736,
      "byteLength": 720,
      "target": 34963
    },
    {
      "buffer": 0,
      "byteOffset": 73456,
      "byteLength": 540,
      "target": 34962
    },
    {
      "buffer": 0,
      "byteOffset": 73996,
      "byteLength": 540,
      "target": 34962
    },
    {
      "buffer": 0,
      "byteOffset": 74536,
      "byteLength": 360,
      "target": 34962
    },
    {
      "buffer": 0,
      "byteOffset": 74896,
      "byteLength": 384,
      "target": 34963
    },
    {
      "buffer": 0,
      "byteOffset": 75280,
      "byteLength": 540,
      "target": 34962
    },
    {
      "buffer": 0,
      "byteOffset": 75820,
      "byteLength": 540,
      "target": 34962
    },
    {
      "buffer": 0,
      "byteOffset": 76360,
      "byteLength": 360,
      "target": 34962
    },
    {
      "buffer": 0,
      "byteOffset": 76720,
      "byteLength": 384,
      "target": 34963
    },
    {
      "buffer": 0,
      "byteOffset": 77104,
      "byteLength": 420,
      "target": 34962
    },
    {
      "buffer": 0,
      "byteOffset": 77524,
      "byteLength": 420,
      "target": 34962
    },
    {
      "buffer": 0,
      "byteOffset": 77944,
      "byteLength": 280,
      "target": 34962
    },
    {
      "buffer": 0,
      "byteOffset": 78224,
      "byteLength": 288,
      "target": 34963
    }
  ],
  "accessors": [
    {
      "bufferView": 0,
      "componentType": 5126,
      "count": 1353,
      "type": "VEC3",
      "min": [
        -0.55,
        -0.2102034082214266,
        -0.2102034082214266
      ],
      "max": [
        0.35,
        0.2102034082214266,
        0.2102034082214266
      ]
    },
    {
      "bufferView": 1,
      "componentType": 5126,
      "count": 1353,
      "type": "VEC3",
      "min": [
        -0.39477082487163,
        -0.9996966564848095,
        -0.9996966564848095
      ],
      "max": [
        0.42410590690624766,
        0.9996966564848095,
        0.9996966564848095
      ]
    },
    {
      "bufferView": 2,
      "componentType": 5126,
      "count": 1353,
      "type": "VEC2",
      "min": [
        0.0,
        0.0
      ],
      "max": [
        1.0,
        1.0
      ]
    },
    {
      "bufferView": 3,
      "componentType": 5123,
      "count": 7680,
      "type": "SCALAR",
      "min": [
        0
      ],
      "max": [
        1352
      ]
    },
    {
      "bufferView": 4,
      "componentType": 5126,
      "count": 273,
      "type": "VEC3",
      "min": [
        -1.2000000000000002,
        -0.21,
        -0.35
      ],
      "max": [
        -0.55,
        0.21,
        0.35
      ]
    },
    {
      "bufferView": 5,
      "componentType": 5126,
      "count": 273,
      "type": "VEC3",
      "min": [
        -0.9995681465906908,
        -0.30255419577023346,
        -0.9999999416410323
      ],
      "max": [
        0.9987252007273474,
        0.9684885257912281,
        -0.02326708871702329
      ]
    },
    {
      "bufferView": 6,
      "componentType": 5126,
      "count": 273,
      "type": "VEC2",
      "min": [
        0.0,
        0.0
      ],
      "max": [
        1.0,
        1.0
      ]
    },
    {
      "bufferView": 7,
      "componentType": 5123,
      "count": 1440,
      "type": "SCALAR",
      "min": [
        0
      ],
      "max": [
        272
      ]
    },
    {
      "bufferView": 8,
      "componentType": 5126,
      "count": 77,
      "type": "VEC3",
      "min": [
        -0.18,
        0.01007999999999995,
        -0.10400000000000001
      ],
      "max": [
        0.24,
        0.36,
        0.10400000000000001
      ]
    },
    {
      "bufferView": 9,
      "componentType": 5126,
      "count": 77,
      "type": "VEC3",
      "min": [
        -0.8797495116730845,
        -1.0,
        -0.4325783374180209
      ],
      "max": [
        0.2005281268780145,
        -0.47543747928720276,
        0.43257833741813045
      ]
    },
    {
      "bufferView": 10,
      "componentType": 5126,
      "count": 77,
      "type": "VEC2",
      "min": [
        0.0,
        0.0
      ],
      "max": [
        1.0,
        1.0
      ]
    },
    {
      "bufferView": 11,
      "componentType": 5123,
      "count": 360,
      "type": "SCALAR",
      "min": [
        0
      ],
      "max": [
        76
      ]
    },
    {
      "bufferView": 12,
      "componentType": 5126,
      "count": 45,
      "type": "VEC3",
      "min": [
        -0.009999999999999998,
        -0.05,
        0.009999999999999995
      ],
      "max": [
        0.31000000000000005,
        0.04414213562373095,
        0.22999999999999998
      ]
    },
    {
      "bufferView": 13,
      "componentType": 5126,
      "count": 45,
      "type": "VEC3",
      "min": [
        -0.5853409794752922,
        -0.9923023434735677,
        -0.3270363166811988
      ],
      "max": [
        0.644220751380142,
        -0.7215305779344998,
        0.1750786582774593
      ]
    },
    {
      "bufferView": 14,
      "componentType": 5126,
      "count": 45,
      "type": "VEC2",
      "min": [
        0.0,
        0.0
      ],
      "max": [
        1.0,
        1.0
      ]
    },
    {
      "bufferView": 15,
      "componentType": 5123,
      "count": 192,
      "type": "SCALAR",
      "min": [
        0
      ],
      "max": [
        44
      ]
    },
    {
      "bufferView": 16,
      "componentType": 5126,
      "count": 45,
      "type": "VEC3",
      "min": [
        -0.009999999999999998,
        -0.05,
        -0.22999999999999998
      ],
      "max": [
        0.31000000000000005,
        0.04414213562373095,
        -0.009999999999999995
      ]
    },
    {
      "bufferView": 17,
      "componentType": 5126,
      "count": 45,
      "type": "VEC3",
      "min": [
        -0.5853409794752922,
        -0.9923023434735677,
        -0.1750786582774593
      ],
      "max": [
        0.644220751380142,
        -0.7215305779344998,
        0.3270363166811988
      ]
    },
    {
      "bufferView": 18,
      "componentType": 5126,
      "count": 45,
      "type": "VEC2",
      "min": [
        0.0,
        0.0
      ],
      "max": [
        1.0,
        1.0
      ]
    },
    {
      "bufferView": 19,
      "componentType": 5123,
      "count": 192,
      "type": "SCALAR",
      "min": [
        0
      ],
      "max": [
        44
      ]
    },
    {
      "bufferView": 20,
      "componentType": 5126,
      "count": 35,
      "type": "VEC3",
      "min": [
        -0.12,
        -0.165,
        -0.09
      ],
      "max": [
        0.1,
        -0.09369231718195578,
        0.09
      ]
    },
    {
      "bufferView": 21,
      "componentType": 5126,
      "count": 35,
      "type": "VEC3",
      "min": [
        -0.36235813222642094,
        -0.9931427583936664,
        0.04433647471439394
      ],
      "max": [
        0.6009492725835871,
        -0.7980565448582934,
        0.05517459768859232
      ]
    },
    {
      "bufferView": 22,
      "componentType": 5126,
      "count": 35,
      "type": "VEC2",
      "min": [
        0.0,
        0.0
      ],
      "max": [
        1.0,
        1.0
      ]
    },
    {
      "bufferView": 23,
      "componentType": 5123,
      "count": 144,
      "type": "SCALAR",
      "min": [
        0
      ],
      "max": [
        34
      ]
    }
  ]
}