{
  "asset": {
    "version": "2.0",
    "generator": "procedural-goldfish"
  },
  "scene": 0,
  "scenes": [
    {
      "nodes": [
        0
      ]
    }
  ],
  "nodes": [
    {
      "name": "Goldfish",
      "children": [
        1,
        2,
        3,
        4,
        5,
        6,
        7,
        8,
        9,
        10
      ]
    },
    {
      "name": "Body",
      "mesh": 0
    },
    {
      "name": "Tail",
      "mesh": 1,
      "translation": [
        -0.55,
        0.0,
        0.0
      ]
    },
    {
      "name": "Dorsal",
      "mesh": 2
    },
    {
      "name": "PectoralL",
      "mesh": 3
    },
    {
      "name": "PectoralR",
      "mesh": 4
    },
    {
      "name": "Pelvic",
      "mesh": 5
    },
    {
      "name": "EyeLeftWhite",
      "mesh": 6,
      "translation": [
        0.26,
        0.03,
        0.12
      ]
    },
    {
      "name": "EyeRightWhite",
      "mesh": 6,
      "translation": [
        0.26,
        0.03,
        -0.12
      ]
    },
    {
      "name": "EyeLeftPupil",
      "mesh": 7,
      "translation": [
        0.29,
        0.035,
        0.13
      ],
      "scale": [
        0.9,
        1.05,
        0.9
      ]
    },
    {
      "name": "EyeRightPupil",
      "mesh": 7,
      "translation": [
        0.29,
        0.035,
        -0.13
      ],
      "scale": [
        0.9,
        1.05,
        0.9
      ]
    }
  ],
  "meshes": [
    {
      "name": "Body",
      "primitives": [
        {
          "attributes": {
            "POSITION": 0,
            "NORMAL": 1,
            "TEXCOORD_0": 2,
            "COLOR_0": 3
          },
          "indices": 4,
          "material": 0
        }
      ]
    },
    {
      "name": "Tail",
      "primitives": [
        {
          "attributes": {
            "POSITION": 5,
            "NORMAL": 6,
            "TEXCOORD_0": 7,
            "COLOR_0": 8
          },
          "indices": 9,
          "material": 1
        }
      ]
    },
    {
      "name": "Dorsal",
      "primitives": [
        {
          "attributes": {
            "POSITION": 10,
            "NORMAL": 11,
            "TEXCOORD_0": 12,
            "COLOR_0": 13
          },
          "indices": 14,
          "material": 1
        }
      ]
    },
    {
      "name": "PectoralL",
      "primitives": [
        {
          "attributes": {
            "POSITION": 15,
            "NORMAL": 16,
            "TEXCOORD_0": 17,
            "COLOR_0": 18
          },
          "indices": 19,
          "material": 1
        }
      ]
    },
    {
      "name": "PectoralR",
      "primitives": [
        {
          "attributes": {
            "POSITION": 20,
            "NORMAL": 21,
            "TEXCOORD_0": 22,
            "COLOR_0": 23
          },
          "indices": 24,
          "material": 1
        }
      ]
    },
    {
      "name": "Pelvic",
      "primitives": [
        {
          "attributes": {
            "POSITION": 25,
            "NORMAL": 26,
            "TEXCOORD_0": 27,
            "COLOR_0": 28
          },
          "indices": 29,
          "material": 1
        }
      ]
    },
    {
      "name": "EyeWhite",
      "primitives": [
        {
          "attributes": {
            "POSITION": 30,
            "NORMAL": 31,
            "TEXCOORD_0": 32
          },
          "indices": 33,
          "material": 2
        }
      ]
    },
    {
      "name": "EyePupil",
      "primitives": [
        {
          "attributes": {
            "POSITION": 34,
            "NORMAL": 35,
            "TEXCOORD_0": 36
          },
          "indices": 37,
          "material": 3
        }
      ]
    }
  ],
  "materials": [
    {
      "name": "BodyMaterial",
      "pbrMetallicRoughness": {
        "baseColorFactor": [
          1.0,
          0.52,
          0.3,
          1.0
        ],
        "metallicFactor": 0.05,
        "roughnessFactor": 0.35
      },
      "emissiveFactor": [
        0.08,
        0.02,
        0.0
      ]
    },
    {
      "name": "FinMaterial",
      "pbrMetallicRoughness": {
        "baseColorFactor": [
          1.0,
          0.74,
          0.55,
          0.7
        ],
        "metallicFactor": 0.0,
        "roughnessFactor": 0.6
      },
      "alphaMode": "BLEND",
      "doubleSided": true,
      "emissiveFactor": [
        0.05,
        0.02,
        0.01
      ]
    },
    {
      "name": "EyeWhite",
      "pbrMetallicRoughness": {
        "baseColorFactor": [
          1.0,
          0.98,
          0.95,
          1.0
        ],
        "metallicFactor": 0.0,
        "roughnessFactor": 0.35
      },
      "emissiveFactor": [
        0.15,
        0.15,
        0.18
      ]
    },
    {
      "name": "EyePupil",
      "pbrMetallicRoughness": {
        "baseColorFactor": [
          0.08,
          0.08,
          0.12,
          1.0
        ],
        "metallicFactor": 0.0,
        "roughnessFactor": 0.1
      },
      "emissiveFactor": [
        0.02,
        0.02,
        0.04
      ]
    }
  ],
  "buffers": [
    {
      "byteLength": 162448,
      "uri": "data:application/octet-stream;base64,"
    }
  ],
  "bufferViews": [
    {
      "buffer": 0,
      "byteOffset": 0,
      "byteLength": 21756,
      "target": 34962
    },
    {
      "buffer": 0,
      "byteOffset": 21756,
      "byteLength": 21756,
      "target": 34962
    },
    {
      "buffer": 0,
      "byteOffset": 43512,
      "byteLength": 14504,
      "target": 34962
    },
    {
      "buffer": 0,
      "byteOffset": 58016,
      "byteLength": 29008,
      "target": 34962
    },
    {
      "buffer": 0,
      "byteOffset": 87024,
      "byteLength": 20736,
      "target": 34963
    },
    {
      "buffer": 0,
      "byteOffset": 107760,
      "byteLength": 3276,
      "target": 34962
    },
    {
      "buffer": 0,
      "byteOffset": 111036,
      "byteLength": 3276,
      "target": 34962
    },
    {
      "buffer": 0,
      "byteOffset": 114312,
      "byteLength": 2184,
      "target": 34962
    },
    {
      "buffer": 0,
      "byteOffset": 116496,
      "byteLength": 4368,
      "target": 34962
    },
    {
      "buffer": 0,
      "byteOffset": 120864,
      "byteLength": 2880,
      "target": 34963
    },
    {
      "buffer": 0,
      "byteOffset": 123744,
      "byteLength": 924,
      "target": 34962
    },
    {
      "buffer": 0,
      "byteOffset": 124668,
      "byteLength": 924,
      "target": 34962
    },
    {
      "buffer": 0,
      "byteOffset": 125592,
      "byteLength": 616,
      "target": 34962
    },
    {
      "buffer": 0,
      "byteOffset": 126208,
      "byteLength": 1232,
      "target": 34962
    },
    {
      "buffer": 0,
      "byteOffset": 127440,
      "byteLength": 720,
      "target": 34963
    },
    {
      "buffer": 0,
      "byteOffset": 128160,
      "byteLength": 540,
      "target": 34962
    },
    {
      "buffer": 0,
      "byteOffset": 128700,
      "byteLength": 540,
      "target": 34962
    },
    {
      "buffer": 0,
      "byteOffset": 129240,
      "byteLength": 360,
      "target": 34962
    },
    {
      "buffer": 0,
      "byteOffset": 129600,
      "byteLength": 720,
      "target": 34962
    },
    {
      "buffer": 0,
      "byteOffset": 130320,
      "byteLength": 384,
      "target": 34963
    },
    {
      "buffer": 0,
      "byteOffset": 130704,
      "byteLength": 540,
      "target": 34962
    },
    {
      "buffer": 0,
      "byteOffset": 131244,
      "byteLength": 540,
      "target": 34962
    },
    {
      "buffer": 0,
      "byteOffset": 131784,
      "byteLength": 360,
      "target": 34962
    },
    {
      "buffer": 0,
      "byteOffset": 132144,
      "byteLength": 720,
      "target": 34962
    },
    {
      "buffer": 0,
      "byteOffset": 132864,
      "byteLength": 384,
      "target": 34963
    },
    {
      "buffer": 0,
      "byteOffset": 133248,
      "byteLength": 420,
      "target": 34962
    },
    {
      "buffer": 0,
      "byteOffset": 133668,
      "byteLength": 420,
      "target": 34962
    },
    {
      "buffer": 0,
      "byteOffset": 134088,
      "byteLength": 280,
      "target": 34962
    },
    {
      "buffer": 0,
      "byteOffset": 134368,
      "byteLength": 560,
      "target": 34962
    },
    {
      "buffer": 0,
      "byteOffset": 134928,
      "byteLength": 288,
      "target": 34963
    },
    {
      "buffer": 0,
      "byteOffset": 135216,
      "byteLength": 4692,
      "target": 34962
    },
    {
      "buffer": 0,
      "byteOffset": 139908,
      "byteLength": 4692,
      "target": 34962
    },
    {
      "buffer": 0,
      "byteOffset": 144600,
      "byteLength": 3128,
      "target": 34962
    },
    {
      "buffer": 0,
      "byteOffset": 147728,
      "byteLength": 4224,
      "target": 34963
    },
    {
      "buffer": 0,
      "byteOffset": 151952,
      "byteLength": 2964,
      "target": 34962
    },
    {
      "buffer": 0,
      "byteOffset": 154916,
      "byteLength": 2964,
      "target": 34962
    },
    {
      "buffer": 0,
      "byteOffset": 157880,
      "byteLength": 1976,
      "target": 34962
    },
    {
      "buffer": 0,
      "byteOffset": 159856,
      "byteLength": 2592,
      "target": 34963
    }
  ],
  "accessors": [
    {
      "bufferView": 0,
      "componentType": 5126,
      "count": 1813,
      "type": "VEC3",
      "min": [
        -0.55,
        -0.27517632927462393,
        -0.27517632927462393
      ],
      "max": [
        0.35,
        0.27517632927462393,
        0.27517632927462393
      ]
    },
    {
      "bufferView": 1,
      "componentType": 5126,
      "count": 1813,
      "type": "VEC3",
      "min": [
        -0.5660018380853976,
        -0.9999967066699574,
        -0.9999967066699574
      ],
      "max": [
        0.6001333850266805,
        0.9999967066699574,
        0.9999967066699574
      ]
    },
    {
      "bufferView": 2,
      "componentType": 5126,
      "count": 1813,
      "type": "VEC2",
      "min": [
        0.0,
        0.0
      ],
      "max": [
        1.0,
        1.0
      ]
    },
    {
      "bufferView": 3,
      "componentType": 5126,
      "count": 1813,
      "type": "VEC4",
      "min": [
        1.0,
        0.5160013531604145,
        0.29600175789610433,
        1.0
      ],
      "max": [
        1.0,
        0.979549258342203,
        0.8885597070854611,
        1.0
      ]
    },
    {
      "bufferView": 4,
      "componentType": 5123,
      "count": 10368,
      "type": "SCALAR",
      "min": [
        0
      ],
      "max": [
        1812
      ]
    },
    {
      "bufferView": 5,
      "componentType": 5126,
      "count": 273,
      "type": "VEC3",
      "min": [
        -1.23,
        -0.3118413960310916,
        -0.7463883381717845
      ],
      "max": [
        -0.55,
        0.3118413960310916,
        0.7463883381717845
      ]
    },
    {
      "bufferView": 6,
      "componentType": 5126,
      "count": 273,
      "type": "VEC3",
      "min": [
        -0.5301340900149862,
        -0.11646507954277056,
        -0.8786599911753854
      ],
      "max": [
        0.3665824580734003,
        0.9723839300906147,
        0.7981033998990362
      ]
    },
    {
      "bufferView": 7,
      "componentType": 5126,
      "count": 273,
      "type": "VEC2",
      "min": [
        0.0,
        0.0
      ],
      "max": [
        1.0,
        1.0
      ]
    },
    {
      "bufferView": 8,
      "componentType": 5126,
      "count": 273,
      "type": "VEC4",
      "min": [
        0.9475682089682099,
        0.487534104484105,
        0.3771259194079198,
        0.28
      ],
      "max": [
        1.0,
        0.8110085178675375,
        0.6094916437974524,
        0.88
      ]
    },
    {
      "bufferView": 9,
      "componentType": 5123,
      "count": 1440,
      "type": "SCALAR",
      "min": [
        0
      ],
      "max": [
        272
      ]
    },
    {
      "bufferView": 10,
      "componentType": 5126,
      "count": 77,
      "type": "VEC3",
      "min": [
        -0.22,
        0.18974275871498228,
        -0.136
      ],
      "max": [
        0.28,
        0.39979475950078147,
        0.136
      ]
    },
    {
      "bufferView": 11,
      "componentType": 5126,
      "count": 77,
      "type": "VEC3",
      "min": [
        -0.7308799242017219,
        -0.9983535953036854,
        -0.9906334793979029
      ],
      "max": [
        0.7330547643275366,
        0.6546728937872657,
        0.990633479397903
      ]
    },
    {
      "bufferView": 12,
      "componentType": 5126,
      "count": 77,
      "type": "VEC2",
      "min": [
        0.0,
        0.0
      ],
      "max": [
        1.0,
        1.0
      ]
    },
    {
      "bufferView": 13,
      "componentType": 5126,
      "count": 77,
      "type": "VEC4",
      "min": [
        1.0,
        0.56,
        0.4,
        0.3
      ],
      "max": [
        1.0,
        0.78,
        0.5800000000000001,
        0.8
      ]
    },
    {
      "bufferView": 14,
      "componentType": 5123,
      "count": 360,
      "type": "SCALAR",
      "min": [
        0
      ],
      "max": [
        76
      ]
    },
    {
      "bufferView": 15,
      "componentType": 5126,
      "count": 45,
      "type": "VEC3",
      "min": [
        -0.025,
        -0.05500000000000001,
        -0.01213525491562421
      ],
      "max": [
        0.355,
        0.05817460163830689,
        0.29498843554361087
      ]
    },
    {
      "bufferView": 16,
      "componentType": 5126,
      "count": 45,
      "type": "VEC3",
      "min": [
        -0.5829515234664188,
        -0.9949012355193759,
        -0.30110448698578424
      ],
      "max": [
        0.6420533608299027,
        -0.7088911354113334,
        0.161554626792318
      ]
    },
    {
      "bufferView": 17,
      "componentType": 5126,
      "count": 45,
      "type": "VEC2",
      "min": [
        0.0,
        0.0
      ],
      "max": [
        1.0,
        1.0
      ]
    },
    {
      "bufferView": 18,
      "componentType": 5126,
      "count": 45,
      "type": "VEC4",
      "min": [
        0.9,
        0.612,
        0.4896,
        0.33999999999999997
      ],
      "max": [
        1.02,
        0.7752,
        0.5916,
        0.8
      ]
    },
    {
      "bufferView": 19,
      "componentType": 5123,
      "count": 192,
      "type": "SCALAR",
      "min": [
        0
      ],
      "max": [
        44
      ]
    },
    {
      "bufferView": 20,
      "componentType": 5126,
      "count": 45,
      "type": "VEC3",
      "min": [
        -0.025,
        -0.05500000000000001,
        -0.29498843554361087
      ],
      "max": [
        0.355,
        0.05817460163830689,
        0.01213525491562421
      ]
    },
    {
      "bufferView": 21,
      "componentType": 5126,
      "count": 45,
      "type": "VEC3",
      "min": [
        -0.5829515234664188,
        -0.9949012355193759,
        -0.161554626792318
      ],
      "max": [
        0.6420533608299027,
        -0.7088911354113334,
        0.30110448698578424
      ]
    },
    {
      "bufferView": 22,
      "componentType": 5126,
      "count": 45,
      "type": "VEC2",
      "min": [
        0.0,
        0.0
      ],
      "max": [
        1.0,
        1.0
      ]
    },
    {
      "bufferView": 23,
      "componentType": 5126,
      "count": 45,
      "type": "VEC4",
      "min": [
        0.9,
        0.612,
        0.4896,
        0.33999999999999997
      ],
      "max": [
        1.02,
        0.7752,
        0.5916,
        0.8
      ]
    },
    {
      "bufferView": 24,
      "componentType": 5123,
      "count": 192,
      "type": "SCALAR",
      "min": [
        0
      ],
      "max": [
        44
      ]
    },
    {
      "bufferView": 25,
      "componentType": 5126,
      "count": 35,
      "type": "VEC3",
      "min": [
        -0.16,
        -0.186,
        -0.125
      ],
      "max": [
        0.07999999999999999,
        -0.09786912343338475,
        0.125
      ]
    },
    {
      "bufferView": 26,
      "componentType": 5126,
      "count": 35,
      "type": "VEC3",
      "min": [
        -0.2832391246204869,
        -0.9980063649010262,
        0.036113717309563476
      ],
      "max": [
        0.5936632504486314,
        -0.8036548255859142,
        0.05439253463962988
      ]
    },
    {
      "bufferView": 27,
      "componentType": 5126,
      "count": 35,
      "type": "VEC2",
      "min": [
        0.0,
        0.0
      ],
      "max": [
        1.0,
        1.0
      ]
    },
    {
      "bufferView": 28,
      "componentType": 5126,
      "count": 35,
      "type": "VEC4",
      "min": [
        1.0,
        0.62,
        0.46,
        0.3
      ],
      "max": [
        1.0,
        0.8500000000000001,
        0.67,
        0.72
      ]
    },
    {
      "bufferView": 29,
      "componentType": 5123,
      "count": 144,
      "type": "SCALAR",
      "min": [
        0
      ],
      "max": [
        34
      ]
    },
    {
      "bufferView": 30,
      "componentType": 5126,
      "count": 391,
      "type": "VEC3",
      "min": [
        -0.085,
        -0.085,
        -0.0841348225598793
      ],
      "max": [
        0.085,
        0.085,
        0.0841348225598793
      ]
    },
    {
      "bufferView": 31,
      "componentType": 5126,
      "count": 391,
      "type": "VEC3",
      "min": [
        -1.0,
        -1.0,
        -0.9898214418809328
      ],
      "max": [
        1.0,
        1.0,
        0.9898214418809328
      ]
    },
    {
      "bufferView": 32,
      "componentType": 5126,
      "count": 391,
      "type": "VEC2",
      "min": [
        0.0,
        0.0
      ],
      "max": [
        1.0,
        1.0
      ]
    },
    {
      "bufferView": 33,
      "componentType": 5123,
      "count": 2112,
      "type": "SCALAR",
      "min": [
        0
      ],
      "max": [
        390
      ]
    },
    {
      "bufferView": 34,
      "componentType": 5126,
      "count": 247,
      "type": "VEC3",
      "min": [
        -0.04,
        -0.04,
        -0.03939231012048833
      ],
      "max": [
        0.04,
        0.04,
        0.03939231012048832
      ]
    },
    {
      "bufferView": 35,
      "componentType": 5126,
      "count": 247,
      "type": "VEC3",
      "min": [
        -1.0,
        -1.0,
        -0.9848077530122081
      ],
      "max": [
        1.0,
        1.0,
        0.984807753012208
      ]
    },
    {
      "bufferView": 36,
      "componentType": 5126,
      "count": 247,
      "type": "VEC2",
      "min": [
        0.0,
        0.0
      ],
      "max": [
        1.0,
        1.0
      ]
    },
    {
      "bufferView": 37,
      "componentType": 5123,
      "count": 1296,
      "type": "SCALAR",
      "min": [
        0
      ],
      "max": [
        246
      ]
    }
  ]
}