{
  "asset": {
    "version": "2.0",
    "generator": "procedural-goldfish"
  },
  "scene": 0,
  "scenes": [
    {
      "nodes": [
        0
      ]
    }
  ],
  "nodes": [
    {
      "name": "Goldfish",
      "children": [
        1,
        2,
        3,
        4,
        5,
        6,
        7,
        8,
        9,
        10
      ]
    },
    {
      "name": "Body",
      "mesh": 0
    },
    {
      "name": "Tail",
      "mesh": 1,
      "translation": [
        -0.55,
        0.0,
        0.0
      ]
    },
    {
      "name": "Dorsal",
      "mesh": 2
    },
    {
      "name": "PectoralL",
      "mesh": 3
    },
    {
      "name": "PectoralR",
      "mesh": 4
    },
    {
      "name": "Pelvic",
      "mesh": 5
    },
    {
      "name": "EyeLeftWhite",
      "mesh": 6,
      "translation": [
        0.29,
        0.038,
        0.132
      ]
    },
    {
      "name": "EyeRightWhite",
      "mesh": 6,
      "translation": [
        0.29,
        0.038,
        -0.132
      ]
    },
    {
      "name": "EyeLeftPupil",
      "mesh": 7,
      "translation": [
        0.316,
        0.044,
        0.145
      ],
      "scale": [
        0.92,
        1.08,
        0.92
      ]
    },
    {
      "name": "EyeRightPupil",
      "mesh": 7,
      "translation": [
        0.316,
        0.044,
        -0.145
      ],
      "scale": [
        0.92,
        1.08,
        0.92
      ]
    }
  ],
  "meshes": [
    {
      "name": "Body",
      "primitives": [
        {
          "attributes": {
            "POSITION": 0,
            "NORMAL": 1,
            "TEXCOORD_0": 2,
            "COLOR_0": 3
          },
          "indices": 4,
          "material": 0
        }
      ]
    },
    {
      "name": "Tail",
      "primitives": [
        {
          "attributes": {
            "POSITION": 5,
            "NORMAL": 6,
            "TEXCOORD_0": 7,
            "COLOR_0": 8
          },
          "indices": 9,
          "material": 1
        }
      ]
    },
    {
      "name": "Dorsal",
      "primitives": [
        {
          "attributes": {
            "POSITION": 10,
            "NORMAL": 11,
            "TEXCOORD_0": 12,
            "COLOR_0": 13
          },
          "indices": 14,
          "material": 1
        }
      ]
    },
    {
      "name": "PectoralL",
      "primitives": [
        {
          "attributes": {
            "POSITION": 15,
            "NORMAL": 16,
            "TEXCOORD_0": 17,
            "COLOR_0": 18
          },
          "indices": 19,
          "material": 1
        }
      ]
    },
    {
      "name": "PectoralR",
      "primitives": [
        {
          "attributes": {
            "POSITION": 20,
            "NORMAL": 21,
            "TEXCOORD_0": 22,
            "COLOR_0": 23
          },
          "indices": 24,
          "material": 1
        }
      ]
    },
    {
      "name": "Pelvic",
      "primitives": [
        {
          "attributes": {
            "POSITION": 25,
            "NORMAL": 26,
            "TEXCOORD_0": 27,
            "COLOR_0": 28
          },
          "indices": 29,
          "material": 1
        }
      ]
    },
    {
      "name": "EyeWhite",
      "primitives": [
        {
          "attributes": {
            "POSITION": 30,
            "NORMAL": 31,
            "TEXCOORD_0": 32
          },
          "indices": 33,
          "material": 2
        }
      ]
    },
    {
      "name": "EyePupil",
      "primitives": [
        {
          "attributes": {
            "POSITION": 34,
            "NORMAL": 35,
            "TEXCOORD_0": 36
          },
          "indices": 37,
          "material": 3
        }
      ]
    }
  ],
  "materials": [
    {
      "name": "BodyMaterial",
      "pbrMetallicRoughness": {
        "baseColorFactor": [
          1.0,
          0.76,
          0.62,
          1.0
        ],
        "metallicFactor": 0.02,
        "roughnessFactor": 0.42
      },
      "emissiveFactor": [
        0.08,
        0.04,
        0.03
      ]
    },
    {
      "name": "FinMaterial",
      "pbrMetallicRoughness": {
        "baseColorFactor": [
          1.0,
          0.82,
          0.78,
          0.7
        ],
        "metallicFactor": 0.0,
        "roughnessFactor": 0.55
      },
      "alphaMode": "BLEND",
      "doubleSided": true,
      "emissiveFactor": [
        0.06,
        0.03,
        0.05
      ]
    },
    {
      "name": "EyeWhite",
      "pbrMetallicRoughness": {
        "baseColorFactor": [
          1.0,
          0.99,
          0.97,
          1.0
        ],
        "metallicFactor": 0.0,
        "roughnessFactor": 0.35
      },
      "emissiveFactor": [
        0.12,
        0.12,
        0.16
      ]
    },
    {
      "name": "EyePupil",
      "pbrMetallicRoughness": {
        "baseColorFactor": [
          0.08,
          0.08,
          0.12,
          1.0
        ],
        "metallicFactor": 0.0,
        "roughnessFactor": 0.1
      },
      "emissiveFactor": [
        0.03,
        0.03,
        0.05
      ]
    }
  ],
  "buffers": [
    {
      "byteLength": 178016,
      "uri": "data:application/octet-stream;base64,"
    }
  ],
  "bufferViews": [
    {
      "buffer": 0,
      "byteOffset": 0,
      "byteLength": 19980,
      "target": 34962
    },
    {
      "buffer": 0,
      "byteOffset": 19980,
      "byteLength": 19980,
      "target": 34962
    },
    {
      "buffer": 0,
      "byteOffset": 39960,
      "byteLength": 13320,
      "target": 34962
    },
    {
      "buffer": 0,
      "byteOffset": 53280,
      "byteLength": 26640,
      "target": 34962
    },
    {
      "buffer": 0,
      "byteOffset": 79920,
      "byteLength": 19008,
      "target": 34963
    },
    {
      "buffer": 0,
      "byteOffset": 98928,
      "byteLength": 5100,
      "target": 34962
    },
    {
      "buffer": 0,
      "byteOffset": 104028,
      "byteLength": 5100,
      "target": 34962
    },
    {
      "buffer": 0,
      "byteOffset": 109128,
      "byteLength": 3400,
      "target": 34962
    },
    {
      "buffer": 0,
      "byteOffset": 112528,
      "byteLength": 6800,
      "target": 34962
    },
    {
      "buffer": 0,
      "byteOffset": 119328,
      "byteLength": 4608,
      "target": 34963
    },
    {
      "buffer": 0,
      "byteOffset": 123936,
      "byteLength": 1620,
      "target": 34962
    },
    {
      "buffer": 0,
      "byteOffset": 125556,
      "byteLength": 1620,
      "target": 34962
    },
    {
      "buffer": 0,
      "byteOffset": 127176,
      "byteLength": 1080,
      "target": 34962
    },
    {
      "buffer": 0,
      "byteOffset": 128256,
      "byteLength": 2160,
      "target": 34962
    },
    {
      "buffer": 0,
      "byteOffset": 130416,
      "byteLength": 1344,
      "target": 34963
    },
    {
      "buffer": 0,
      "byteOffset": 131760,
      "byteLength": 924,
      "target": 34962
    },
    {
      "buffer": 0,
      "byteOffset": 132684,
      "byteLength": 924,
      "target": 34962
    },
    {
      "buffer": 0,
      "byteOffset": 133608,
      "byteLength": 616,
      "target": 34962
    },
    {
      "buffer": 0,
      "byteOffset": 134224,
      "byteLength": 1232,
      "target": 34962
    },
    {
      "buffer": 0,
      "byteOffset": 135456,
      "byteLength": 720,
      "target": 34963
    },
    {
      "buffer": 0,
      "byteOffset": 136176,
      "byteLength": 924,
      "target": 34962
    },
    {
      "buffer": 0,
      "byteOffset": 137100,
      "byteLength": 924,
      "target": 34962
    },
    {
      "buffer": 0,
      "byteOffset": 138024,
      "byteLength": 616,
      "target": 34962
    },
    {
      "buffer": 0,
      "byteOffset": 138640,
      "byteLength": 1232,
      "target": 34962
    },
    {
      "buffer": 0,
      "byteOffset": 139872,
      "byteLength": 720,
      "target": 34963
    },
    {
      "buffer": 0,
      "byteOffset": 140592,
      "byteLength": 756,
      "target": 34962
    },
    {
      "buffer": 0,
      "byteOffset": 141348,
      "byteLength": 756,
      "target": 34962
    },
    {
      "buffer": 0,
      "byteOffset": 142104,
      "byteLength": 504,
      "target": 34962
    },
    {
      "buffer": 0,
      "byteOffset": 142608,
      "byteLength": 1008,
      "target": 34962
    },
    {
      "buffer": 0,
      "byteOffset": 143616,
      "byteLength": 576,
      "target": 34963
    },
    {
      "buffer": 0,
      "byteOffset": 144192,
      "byteLength": 5700,
      "target": 34962
    },
    {
      "buffer": 0,
      "byteOffset": 149892,
      "byteLength": 5700,
      "target": 34962
    },
    {
      "buffer": 0,
      "byteOffset": 155592,
      "byteLength": 3800,
      "target": 34962
    },
    {
      "buffer": 0,
      "byteOffset": 159392,
      "byteLength": 5184,
      "target": 34963
    },
    {
      "buffer": 0,
      "byteOffset": 164576,
      "byteLength": 3780,
      "target": 34962
    },
    {
      "buffer": 0,
      "byteOffset": 168356,
      "byteLength": 3780,
      "target": 34962
    },
    {
      "buffer": 0,
      "byteOffset": 172136,
      "byteLength": 2520,
      "target": 34962
    },
    {
      "buffer": 0,
      "byteOffset": 174656,
      "byteLength": 3360,
      "target": 34963
    }
  ],
  "accessors": [
    {
      "bufferView": 0,
      "componentType": 5126,
      "count": 1665,
      "type": "VEC3",
      "min": [
        -0.55,
        -0.3546301027719467,
        -0.3546301027719467
      ],
      "max": [
        0.35,
        0.3546301027719467,
        0.3546301027719467
      ]
    },
    {
      "bufferView": 1,
      "componentType": 5126,
      "count": 1665,
      "type": "VEC3",
      "min": [
        -0.6769232191001878,
        -0.9999025402757438,
        -0.9999025402757438
      ],
      "max": [
        0.6698225627088445,
        0.9999025402757438,
        0.9999025402757438
      ]
    },
    {
      "bufferView": 2,
      "componentType": 5126,
      "count": 1665,
      "type": "VEC2",
      "min": [
        0.0,
        0.0
      ],
      "max": [
        1.0,
        1.0
      ]
    },
    {
      "bufferView": 3,
      "componentType": 5126,
      "count": 1665,
      "type": "VEC4",
      "min": [
        1.0,
        0.7178147808883075,
        0.6283642499863329,
        1.0
      ],
      "max": [
        1.0,
        0.9926901665826907,
        0.950233483128563,
        1.0
      ]
    },
    {
      "bufferView": 4,
      "componentType": 5123,
      "count": 9504,
      "type": "SCALAR",
      "min": [
        0
      ],
      "max": [
        1664
      ]
    },
    {
      "bufferView": 5,
      "componentType": 5126,
      "count": 425,
      "type": "VEC3",
      "min": [
        -1.27,
        -0.2132,
        -0.656
      ],
      "max": [
        -0.55,
        0.2132,
        0.6733447233182013
      ]
    },
    {
      "bufferView": 6,
      "componentType": 5126,
      "count": 425,
      "type": "VEC3",
      "min": [
        -0.642705700237288,
        -0.6881171072439671,
        -0.9853174550036464
      ],
      "max": [
        0.4856418639356019,
        0.9980602870965106,
        -0.06146004803726159
      ]
    },
    {
      "bufferView": 7,
      "componentType": 5126,
      "count": 425,
      "type": "VEC2",
      "min": [
        0.0,
        0.0
      ],
      "max": [
        1.0,
        1.0
      ]
    },
    {
      "bufferView": 8,
      "componentType": 5126,
      "count": 425,
      "type": "VEC4",
      "min": [
        1.0,
        0.643,
        0.6920000000000001,
        0.43
      ],
      "max": [
        1.0,
        0.8520000000000001,
        0.889,
        0.82
      ]
    },
    {
      "bufferView": 9,
      "componentType": 5123,
      "count": 2304,
      "type": "SCALAR",
      "min": [
        0
      ],
      "max": [
        424
      ]
    },
    {
      "bufferView": 10,
      "componentType": 5126,
      "count": 135,
      "type": "VEC3",
      "min": [
        -0.2,
        0.16,
        -0.136
      ],
      "max": [
        0.28,
        0.48,
        0.136
      ]
    },
    {
      "bufferView": 11,
      "componentType": 5126,
      "count": 135,
      "type": "VEC3",
      "min": [
        -0.9888214916750452,
        -1.0,
        -0.691230162000922
      ],
      "max": [
        0.9888214916754565,
        -0.14910418371301729,
        0.5334461678177518
      ]
    },
    {
      "bufferView": 12,
      "componentType": 5126,
      "count": 135,
      "type": "VEC2",
      "min": [
        0.0,
        0.0
      ],
      "max": [
        1.0,
        1.0
      ]
    },
    {
      "bufferView": 13,
      "componentType": 5126,
      "count": 135,
      "type": "VEC4",
      "min": [
        1.0,
        0.62,
        0.64,
        0.26
      ],
      "max": [
        1.0,
        0.78,
        0.82,
        0.68
      ]
    },
    {
      "bufferView": 14,
      "componentType": 5123,
      "count": 672,
      "type": "SCALAR",
      "min": [
        0
      ],
      "max": [
        134
      ]
    },
    {
      "bufferView": 15,
      "componentType": 5126,
      "count": 77,
      "type": "VEC3",
      "min": [
        -0.06,
        -0.05,
        0.01999999999999999
      ],
      "max": [
        0.36,
        0.08121320343559642,
        0.30000000000000004
      ]
    },
    {
      "bufferView": 16,
      "componentType": 5126,
      "count": 77,
      "type": "VEC3",
      "min": [
        -0.5937077727097005,
        -0.9896143965395703,
        -0.35242852502871846
      ],
      "max": [
        0.6575413564179584,
        -0.7033147717046602,
        0.17771375404214976
      ]
    },
    {
      "bufferView": 17,
      "componentType": 5126,
      "count": 77,
      "type": "VEC2",
      "min": [
        0.0,
        0.0
      ],
      "max": [
        1.0,
        1.0
      ]
    },
    {
      "bufferView": 18,
      "componentType": 5126,
      "count": 77,
      "type": "VEC4",
      "min": [
        0.9016000000000001,
        0.5888,
        0.6256,
        0.38000000000000006
      ],
      "max": [
        1.0,
        0.82,
        0.88,
        0.68
      ]
    },
    {
      "bufferView": 19,
      "componentType": 5123,
      "count": 360,
      "type": "SCALAR",
      "min": [
        0
      ],
      "max": [
        76
      ]
    },
    {
      "bufferView": 20,
      "componentType": 5126,
      "count": 77,
      "type": "VEC3",
      "min": [
        -0.06,
        -0.05,
        -0.30000000000000004
      ],
      "max": [
        0.36,
        0.08121320343559642,
        -0.01999999999999999
      ]
    },
    {
      "bufferView": 21,
      "componentType": 5126,
      "count": 77,
      "type": "VEC3",
      "min": [
        -0.5937077727097005,
        -0.9896143965395703,
        -0.17771375404214976
      ],
      "max": [
        0.6575413564179584,
        -0.7033147717046602,
        0.35242852502871846
      ]
    },
    {
      "bufferView": 22,
      "componentType": 5126,
      "count": 77,
      "type": "VEC2",
      "min": [
        0.0,
        0.0
      ],
      "max": [
        1.0,
        1.0
      ]
    },
    {
      "bufferView": 23,
      "componentType": 5126,
      "count": 77,
      "type": "VEC4",
      "min": [
        0.9016000000000001,
        0.5888,
        0.6256,
        0.38000000000000006
      ],
      "max": [
        1.0,
        0.82,
        0.88,
        0.68
      ]
    },
    {
      "bufferView": 24,
      "componentType": 5123,
      "count": 360,
      "type": "SCALAR",
      "min": [
        0
      ],
      "max": [
        76
      ]
    },
    {
      "bufferView": 25,
      "componentType": 5126,
      "count": 63,
      "type": "VEC3",
      "min": [
        -0.18,
        -0.21000000000000002,
        -0.13
      ],
      "max": [
        0.06,
        -0.10630602337443565,
        0.13
      ]
    },
    {
      "bufferView": 26,
      "componentType": 5126,
      "count": 63,
      "type": "VEC3",
      "min": [
        -0.37403225826408426,
        -0.9970543781992633,
        0.05695611242092674
      ],
      "max": [
        0.6697165175219156,
        -0.7404294614723321,
        0.07669649063078564
      ]
    },
    {
      "bufferView": 27,
      "componentType": 5126,
      "count": 63,
      "type": "VEC2",
      "min": [
        0.0,
        0.0
      ],
      "max": [
        1.0,
        1.0
      ]
    },
    {
      "bufferView": 28,
      "componentType": 5126,
      "count": 63,
      "type": "VEC4",
      "min": [
        1.0,
        0.652,
        0.7120000000000001,
        0.38
      ],
      "max": [
        1.0,
        0.86,
        1.0,
        0.66
      ]
    },
    {
      "bufferView": 29,
      "componentType": 5123,
      "count": 288,
      "type": "SCALAR",
      "min": [
        0
      ],
      "max": [
        62
      ]
    },
    {
      "bufferView": 30,
      "componentType": 5126,
      "count": 475,
      "type": "VEC3",
      "min": [
        -0.095,
        -0.095,
        -0.095
      ],
      "max": [
        0.095,
        0.095,
        0.095
      ]
    },
    {
      "bufferView": 31,
      "componentType": 5126,
      "count": 475,
      "type": "VEC3",
      "min": [
        -1.0,
        -1.0,
        -1.0
      ],
      "max": [
        1.0,
        1.0,
        1.0
      ]
    },
    {
      "bufferView": 32,
      "componentType": 5126,
      "count": 475,
      "type": "VEC2",
      "min": [
        0.0,
        0.0
      ],
      "max": [
        1.0,
        1.0
      ]
    },
    {
      "bufferView": 33,
      "componentType": 5123,
      "count": 2592,
      "type": "SCALAR",
      "min": [
        0
      ],
      "max": [
        474
      ]
    },
    {
      "bufferView": 34,
      "componentType": 5126,
      "count": 315,
      "type": "VEC3",
      "min": [
        -0.045,
        -0.045,
        -0.045
      ],
      "max": [
        0.045,
        0.045,
        0.045
      ]
    },
    {
      "bufferView": 35,
      "componentType": 5126,
      "count": 315,
      "type": "VEC3",
      "min": [
        -1.0,
        -1.0,
        -1.0
      ],
      "max": [
        1.0,
        1.0,
        1.0
      ]
    },
    {
      "bufferView": 36,
      "componentType": 5126,
      "count": 315,
      "type": "VEC2",
      "min": [
        0.0,
        0.0
      ],
      "max": [
        1.0,
        1.0
      ]
    },
    {
      "bufferView": 37,
      "componentType": 5123,
      "count": 1680,
      "type": "SCALAR",
      "min": [
        0
      ],
      "max": [
        314
      ]
    }
  ]
}