{
  "asset": {
    "version": "2.0",
    "generator": "procedural-goldfish"
  },
  "scene": 0,
  "scenes": [
    {
      "nodes": [
        0
      ]
    }
  ],
  "nodes": [
    {
      "name": "Goldfish",
      "children": [
        1,
        2,
        3,
        4,
        5,
        6,
        7,
        8,
        9,
        10
      ]
    },
    {
      "name": "Body",
      "mesh": 0
    },
    {
      "name": "Tail",
      "mesh": 1,
      "translation": [
        -0.55,
        0.0,
        0.0
      ]
    },
    {
      "name": "Dorsal",
      "mesh": 2
    },
    {
      "name": "PectoralL",
      "mesh": 3
    },
    {
      "name": "PectoralR",
      "mesh": 4
    },
    {
      "name": "Pelvic",
      "mesh": 5
    },
    {
      "name": "EyeLeftWhite",
      "mesh": 6,
      "translation": [
        0.26,
        0.03,
        0.12
      ]
    },
    {
      "name": "EyeRightWhite",
      "mesh": 6,
      "translation": [
        0.26,
        0.03,
        -0.12
      ]
    },
    {
      "name": "EyeLeftPupil",
      "mesh": 7,
      "translation": [
        0.29,
        0.035,
        0.13
      ],
      "scale": [
        0.9,
        1.05,
        0.9
      ]
    },
    {
      "name": "EyeRightPupil",
      "mesh": 7,
      "translation": [
        0.29,
        0.035,
        -0.13
      ],
      "scale": [
        0.9,
        1.05,
        0.9
      ]
    }
  ],
  "meshes": [
    {
      "name": "Body",
      "primitives": [
        {
          "attributes": {
            "POSITION": 0,
            "NORMAL": 1,
            "TEXCOORD_0": 2,
            "COLOR_0": 3
          },
          "indices": 4,
          "material": 0
        }
      ]
    },
    {
      "name": "Tail",
      "primitives": [
        {
          "attributes": {
            "POSITION": 5,
            "NORMAL": 6,
            "TEXCOORD_0": 7,
            "COLOR_0": 8
          },
          "indices": 9,
          "material": 1
        }
      ]
    },
    {
      "name": "Dorsal",
      "primitives": [
        {
          "attributes": {
            "POSITION": 10,
            "NORMAL": 11,
            "TEXCOORD_0": 12,
            "COLOR_0": 13
          },
          "indices": 14,
          "material": 1
        }
      ]
    },
    {
      "name": "PectoralL",
      "primitives": [
        {
          "attributes": {
            "POSITION": 15,
            "NORMAL": 16,
            "TEXCOORD_0": 17,
            "COLOR_0": 18
          },
          "indices": 19,
          "material": 1
        }
      ]
    },
    {
      "name": "PectoralR",
      "primitives": [
        {
          "attributes": {
            "POSITION": 20,
            "NORMAL": 21,
            "TEXCOORD_0": 22,
            "COLOR_0": 23
          },
          "indices": 24,
          "material": 1
        }
      ]
    },
    {
      "name": "Pelvic",
      "primitives": [
        {
          "attributes": {
            "POSITION": 25,
            "NORMAL": 26,
            "TEXCOORD_0": 27,
            "COLOR_0": 28
          },
          "indices": 29,
          "material": 1
        }
      ]
    },
    {
      "name": "EyeWhite",
      "primitives": [
        {
          "attributes": {
            "POSITION": 30,
            "NORMAL": 31,
            "TEXCOORD_0": 32
          },
          "indices": 33,
          "material": 2
        }
      ]
    },
    {
      "name": "EyePupil",
      "primitives": [
        {
          "attributes": {
            "POSITION": 34,
            "NORMAL": 35,
            "TEXCOORD_0": 36
          },
          "indices": 37,
          "material": 3
        }
      ]
    }
  ],
  "materials": [
    {
      "name": "BodyMaterial",
      "pbrMetallicRoughness": {
        "baseColorFactor": [
          1.0,
          0.52,
          0.3,
          1.0
        ],
        "metallicFactor": 0.05,
        "roughnessFactor": 0.35
      },
      "emissiveFactor": [
        0.08,
        0.02,
        0.0
      ]
    },
    {
      "name": "FinMaterial",
      "pbrMetallicRoughness": {
        "baseColorFactor": [
          1.0,
          0.74,
          0.55,
          0.7
        ],
        "metallicFactor": 0.0,
        "roughnessFactor": 0.6
      },
      "alphaMode": "BLEND",
      "doubleSided": true,
      "emissiveFactor": [
        0.05,
        0.02,
        0.01
      ]
    },
    {
      "name": "EyeWhite",
      "pbrMetallicRoughness": {
        "baseColorFactor": [
          1.0,
          0.98,
          0.95,
          1.0
        ],
        "metallicFactor": 0.0,
        "roughnessFactor": 0.35
      },
      "emissiveFactor": [
        0.15,
        0.15,
        0.18
      ]
    },
    {
      "name": "EyePupil",
      "pbrMetallicRoughness": {
        "baseColorFactor": [
          0.08,
          0.08,
          0.12,
          1.0
        ],
        "metallicFactor": 0.0,
        "roughnessFactor": 0.1
      },
      "emissiveFactor": [
        0.02,
        0.02,
        0.04
      ]
    }
  ],
  "buffers": [
    {
      "byteLength": 134992,
      "uri": "data:application/octet-stream;base64,"
    }
  ],
  "bufferViews": [
    {
      "buffer": 0,
      "byteOffset": 0,
      "byteLength": 16236,
      "target": 34962
    },
    {
      "buffer": 0,
      "byteOffset": 16236,
      "byteLength": 16236,
      "target": 34962
    },
    {
      "buffer": 0,
      "byteOffset": 32472,
      "byteLength": 10824,
      "target": 34962
    },
    {
      "buffer": 0,
      "byteOffset": 43296,
      "byteLength": 21648,
      "target": 34962
    },
    {
      "buffer": 0,
      "byteOffset": 64944,
      "byteLength": 15360,
      "target": 34963
    },
    {
      "buffer": 0,
      "byteOffset": 80304,
      "byteLength": 3276,
      "target": 34962
    },
    {
      "buffer": 0,
      "byteOffset": 83580,
      "byteLength": 3276,
      "target": 34962
    },
    {
      "buffer": 0,
      "byteOffset": 86856,
      "byteLength": 2184,
      "target": 34962
    },
    {
      "buffer": 0,
      "byteOffset": 89040,
      "byteLength": 4368,
      "target": 34962
    },
    {
      "buffer": 0,
      "byteOffset": 93408,
      "byteLength": 2880,
      "target": 34963
    },
    {
      "buffer": 0,
      "byteOffset": 96288,
      "byteLength": 924,
      "target": 34962
    },
    {
      "buffer": 0,
      "byteOffset": 97212,
      "byteLength": 924,
      "target": 34962
    },
    {
      "buffer": 0,
      "byteOffset": 98136,
      "byteLength": 616,
      "target": 34962
    },
    {
      "buffer": 0,
      "byteOffset": 98752,
      "byteLength": 1232,
      "target": 34962
    },
    {
      "buffer": 0,
      "byteOffset": 99984,
      "byteLength": 720,
      "target": 34963
    },
    {
      "buffer": 0,
      "byteOffset": 100704,
      "byteLength": 540,
      "target": 34962
    },
    {
      "buffer": 0,
      "byteOffset": 101244,
      "byteLength": 540,
      "target": 34962
    },
    {
      "buffer": 0,
      "byteOffset": 101784,
      "byteLength": 360,
      "target": 34962
    },
    {
      "buffer": 0,
      "byteOffset": 102144,
      "byteLength": 720,
      "target": 34962
    },
    {
      "buffer": 0,
      "byteOffset": 102864,
      "byteLength": 384,
      "target": 34963
    },
    {
      "buffer": 0,
      "byteOffset": 103248,
      "byteLength": 540,
      "target": 34962
    },
    {
      "buffer": 0,
      "byteOffset": 103788,
      "byteLength": 540,
      "target": 34962
    },
    {
      "buffer": 0,
      "byteOffset": 104328,
      "byteLength": 360,
      "target": 34962
    },
    {
      "buffer": 0,
      "byteOffset": 104688,
      "byteLength": 720,
      "target": 34962
    },
    {
      "buffer": 0,
      "byteOffset": 105408,
      "byteLength": 384,
      "target": 34963
    },
    {
      "buffer": 0,
      "byteOffset": 105792,
      "byteLength": 420,
      "target": 34962
    },
    {
      "buffer": 0,
      "byteOffset": 106212,
      "byteLength": 420,
      "target": 34962
    },
    {
      "buffer": 0,
      "byteOffset": 106632,
      "byteLength": 280,
      "target": 34962
    },
    {
      "buffer": 0,
      "byteOffset": 106912,
      "byteLength": 560,
      "target": 34962
    },
    {
      "buffer": 0,
      "byteOffset": 107472,
      "byteLength": 288,
      "target": 34963
    },
    {
      "buffer": 0,
      "byteOffset": 107760,
      "byteLength": 4692,
      "target": 34962
    },
    {
      "buffer": 0,
      "byteOffset": 112452,
      "byteLength": 4692,
      "target": 34962
    },
    {
      "buffer": 0,
      "byteOffset": 117144,
      "byteLength": 3128,
      "target": 34962
    },
    {
      "buffer": 0,
      "byteOffset": 120272,
      "byteLength": 4224,
      "target": 34963
    },
    {
      "buffer": 0,
      "byteOffset": 124496,
      "byteLength": 2964,
      "target": 34962
    },
    {
      "buffer": 0,
      "byteOffset": 127460,
      "byteLength": 2964,
      "target": 34962
    },
    {
      "buffer": 0,
      "byteOffset": 130424,
      "byteLength": 1976,
      "target": 34962
    },
    {
      "buffer": 0,
      "byteOffset": 132400,
      "byteLength": 2592,
      "target": 34963
    }
  ],
  "accessors": [
    {
      "bufferView": 0,
      "componentType": 5126,
      "count": 1353,
      "type": "VEC3",
      "min": [
        -0.55,
        -0.2102034082214266,
        -0.2102034082214266
      ],
      "max": [
        0.35,
        0.2102034082214266,
        0.2102034082214266
      ]
    },
    {
      "bufferView": 1,
      "componentType": 5126,
      "count": 1353,
      "type": "VEC3",
      "min": [
        -0.39477082487163,
        -0.9996966564848095,
        -0.9996966564848095
      ],
      "max": [
        0.42410590690624766,
        0.9996966564848095,
        0.9996966564848095
      ]
    },
    {
      "bufferView": 2,
      "componentType": 5126,
      "count": 1353,
      "type": "VEC2",
      "min": [
        0.0,
        0.0
      ],
      "max": [
        1.0,
        1.0
      ]
    },
    {
      "bufferView": 3,
      "componentType": 5126,
      "count": 1353,
      "type": "VEC4",
      "min": [
        1.0,
        0.5480251673248093,
        0.30400213267171383,
        1.0
      ],
      "max": [
        1.0,
        1.0,
        0.9792082830397115,
        1.0
      ]
    },
    {
      "bufferView": 4,
      "componentType": 5123,
      "count": 7680,
      "type": "SCALAR",
      "min": [
        0
      ],
      "max": [
        1352
      ]
    },
    {
      "bufferView": 5,
      "componentType": 5126,
      "count": 273,
      "type": "VEC3",
      "min": [
        -1.2000000000000002,
        -0.21,
        -0.35
      ],
      "max": [
        -0.55,
        0.21,
        0.35
      ]
    },
    {
      "bufferView": 6,
      "componentType": 5126,
      "count": 273,
      "type": "VEC3",
      "min": [
        -0.9995681465906908,
        -0.30255419577023346,
        -0.9999999416410323
      ],
      "max": [
        0.9987252007273474,
        0.9684885257912281,
        -0.02326708871702329
      ]
    },
    {
      "bufferView": 7,
      "componentType": 5126,
      "count": 273,
      "type": "VEC2",
      "min": [
        0.0,
        0.0
      ],
      "max": [
        1.0,
        1.0
      ]
    },
    {
      "bufferView": 8,
      "componentType": 5126,
      "count": 273,
      "type": "VEC4",
      "min": [
        1.0,
        0.508,
        0.368,
        0.25
      ],
      "max": [
        1.0,
        0.768,
        0.5680000000000001,
        0.85
      ]
    },
    {
      "bufferView": 9,
      "componentType": 5123,
      "count": 1440,
      "type": "SCALAR",
      "min": [
        0
      ],
      "max": [
        272
      ]
    },
    {
      "bufferView": 10,
      "componentType": 5126,
      "count": 77,
      "type": "VEC3",
      "min": [
        -0.18,
        0.01007999999999995,
        -0.10400000000000001
      ],
      "max": [
        0.24,
        0.36,
        0.10400000000000001
      ]
    },
    {
      "bufferView": 11,
      "componentType": 5126,
      "count": 77,
      "type": "VEC3",
      "min": [
        -0.8797495116730845,
        -1.0,
        -0.4325783374180209
      ],
      "max": [
        0.2005281268780145,
        -0.47543747928720276,
        0.43257833741813045
      ]
    },
    {
      "bufferView": 12,
      "componentType": 5126,
      "count": 77,
      "type": "VEC2",
      "min": [
        0.0,
        0.0
      ],
      "max": [
        1.0,
        1.0
      ]
    },
    {
      "bufferView": 13,
      "componentType": 5126,
      "count": 77,
      "type": "VEC4",
      "min": [
        1.0,
        0.52,
        0.36,
        0.3
      ],
      "max": [
        1.0,
        0.68,
        0.48,
        0.78
      ]
    },
    {
      "bufferView": 14,
      "componentType": 5123,
      "count": 360,
      "type": "SCALAR",
      "min": [
        0
      ],
      "max": [
        76
      ]
    },
    {
      "bufferView": 15,
      "componentType": 5126,
      "count": 45,
      "type": "VEC3",
      "min": [
        -0.009999999999999998,
        -0.05,
        0.009999999999999995
      ],
      "max": [
        0.31000000000000005,
        0.04414213562373095,
        0.22999999999999998
      ]
    },
    {
      "bufferView": 16,
      "componentType": 5126,
      "count": 45,
      "type": "VEC3",
      "min": [
        -0.5853409794752922,
        -0.9923023434735677,
        -0.3270363166811988
      ],
      "max": [
        0.644220751380142,
        -0.7215305779344998,
        0.1750786582774593
      ]
    },
    {
      "bufferView": 17,
      "componentType": 5126,
      "count": 45,
      "type": "VEC2",
      "min": [
        0.0,
        0.0
      ],
      "max": [
        1.0,
        1.0
      ]
    },
    {
      "bufferView": 18,
      "componentType": 5126,
      "count": 45,
      "type": "VEC4",
      "min": [
        0.92,
        0.6,
        0.46,
        0.37
      ],
      "max": [
        1.0,
        0.74,
        0.54,
        0.72
      ]
    },
    {
      "bufferView": 19,
      "componentType": 5123,
      "count": 192,
      "type": "SCALAR",
      "min": [
        0
      ],
      "max": [
        44
      ]
    },
    {
      "bufferView": 20,
      "componentType": 5126,
      "count": 45,
      "type": "VEC3",
      "min": [
        -0.009999999999999998,
        -0.05,
        -0.22999999999999998
      ],
      "max": [
        0.31000000000000005,
        0.04414213562373095,
        -0.009999999999999995
      ]
    },
    {
      "bufferView": 21,
      "componentType": 5126,
      "count": 45,
      "type": "VEC3",
      "min": [
        -0.5853409794752922,
        -0.9923023434735677,
        -0.1750786582774593
      ],
      "max": [
        0.644220751380142,
        -0.7215305779344998,
        0.3270363166811988
      ]
    },
    {
      "bufferView": 22,
      "componentType": 5126,
      "count": 45,
      "type": "VEC2",
      "min": [
        0.0,
        0.0
      ],
      "max": [
        1.0,
        1.0
      ]
    },
    {
      "bufferView": 23,
      "componentType": 5126,
      "count": 45,
      "type": "VEC4",
      "min": [
        0.92,
        0.6,
        0.46,
        0.37
      ],
      "max": [
        1.0,
        0.74,
        0.54,
        0.72
      ]
    },
    {
      "bufferView": 24,
      "componentType": 5123,
      "count": 192,
      "type": "SCALAR",
      "min": [
        0
      ],
      "max": [
        44
      ]
    },
    {
      "bufferView": 25,
      "componentType": 5126,
      "count": 35,
      "type": "VEC3",
      "min": [
        -0.12,
        -0.165,
        -0.09
      ],
      "max": [
        0.1,
        -0.09369231718195578,
        0.09
      ]
    },
    {
      "bufferView": 26,
      "componentType": 5126,
      "count": 35,
      "type": "VEC3",
      "min": [
        -0.36235813222642094,
        -0.9931427583936664,
        0.04433647471439394
      ],
      "max": [
        0.6009492725835871,
        -0.7980565448582934,
        0.05517459768859232
      ]
    },
    {
      "bufferView": 27,
      "componentType": 5126,
      "count": 35,
      "type": "VEC2",
      "min": [
        0.0,
        0.0
      ],
      "max": [
        1.0,
        1.0
      ]
    },
    {
      "bufferView": 28,
      "componentType": 5126,
      "count": 35,
      "type": "VEC4",
      "min": [
        1.0,
        0.58,
        0.42,
        0.29999999999999993
      ],
      "max": [
        1.0,
        0.78,
        0.6,
        0.7
      ]
    },
    {
      "bufferView": 29,
      "componentType": 5123,
      "count": 144,
      "type": "SCALAR",
      "min": [
        0
      ],
      "max": [
        34
      ]
    },
    {
      "bufferView": 30,
      "componentType": 5126,
      "count": 391,
      "type": "VEC3",
      "min": [
        -0.085,
        -0.085,
        -0.0841348225598793
      ],
      "max": [
        0.085,
        0.085,
        0.0841348225598793
      ]
    },
    {
      "bufferView": 31,
      "componentType": 5126,
      "count": 391,
      "type": "VEC3",
      "min": [
        -1.0,
        -1.0,
        -0.9898214418809328
      ],
      "max": [
        1.0,
        1.0,
        0.9898214418809328
      ]
    },
    {
      "bufferView": 32,
      "componentType": 5126,
      "count": 391,
      "type": "VEC2",
      "min": [
        0.0,
        0.0
      ],
      "max": [
        1.0,
        1.0
      ]
    },
    {
      "bufferView": 33,
      "componentType": 5123,
      "count": 2112,
      "type": "SCALAR",
      "min": [
        0
      ],
      "max": [
        390
      ]
    },
    {
      "bufferView": 34,
      "componentType": 5126,
      "count": 247,
      "type": "VEC3",
      "min": [
        -0.04,
        -0.04,
        -0.03939231012048833
      ],
      "max": [
        0.04,
        0.04,
        0.03939231012048832
      ]
    },
    {
      "bufferView": 35,
      "componentType": 5126,
      "count": 247,
      "type": "VEC3",
      "min": [
        -1.0,
        -1.0,
        -0.9848077530122081
      ],
      "max": [
        1.0,
        1.0,
        0.984807753012208
      ]
    },
    {
      "bufferView": 36,
      "componentType": 5126,
      "count": 247,
      "type": "VEC2",
      "min": [
        0.0,
        0.0
      ],
      "max": [
        1.0,
        1.0
      ]
    },
    {
      "bufferView": 37,
      "componentType": 5123,
      "count": 1296,
      "type": "SCALAR",
      "min": [
        0
      ],
      "max": [
        246
      ]
    }
  ]
}